#!OML:ASF X:\für Bonn\!DataBase\2005_08_10_Bjorn_Final\c3d\bjorn.ASF
:FULLY-SPECIFIED
:DEGREES
72
root 4.76087 21.3825 -5.6327 10.4438 -2.47432 360.251
lowerback 5.31159 0.92011 1.53025
upperback 10.6396 1.1863 0.48395
thorax 8.22552 0.680918 -0.321206
lowerneck -1.90838 -2.15963 1.84093
upperneck -17.9128 -3.13405 -1.32035
head -5.12105 -1.59901 -0.595811
rclavicle -1.31198e-014 -1.98785e-015
rhumerus -32.7264 -3.47169 -95.9591
rradius 61.9051
rwrist -6.16012
rhand -23.4644 27.7616
rfingers 7.12502
rthumb 2.99461 -2.19716
lclavicle -1.31198e-014 -1.98785e-015
lhumerus -36.5745 -23.7333 94.5003
lradius 59.3117
lwrist 14.0633
lhand -37.1628 -24.0785
lfingers 7.12502
lthumb -10.2317 5.65269
rfemur -29.8193 -2.80229 13.0488
rtibia 37.6061
rfoot 12.7251 6.70751
rtoes -22.9539
lfemur -29.2871 0.537173 -15.2759
ltibia 35.4374
lfoot 8.90498 1.33828
ltoes -32.8594
73
root 4.75867 21.0655 -5.49756 10.2977 -2.30324 360.167
lowerback 5.43679 0.953843 1.50469
upperback 10.8992 1.22775 0.538085
thorax 8.44241 0.698914 -0.24729
lowerneck -2.16752 -2.22245 2.03423
upperneck -17.7585 -3.23507 -1.44039
head -5.03691 -1.65601 -0.665365
rclavicle -4.77083e-015 -2.38542e-015
rhumerus -33.8143 -4.65175 -95.5853
rradius 61.911
rwrist -6.42014
rhand -23.6737 29.2346
rfingers 7.12502
rthumb 2.79246 -0.72684
lclavicle -4.77083e-015 -2.38542e-015
lhumerus -36.8801 -22.9805 95.0462
lradius 57.8839
lwrist 15.761
lhand -37.0371 -22.3457
lfingers 7.12502
lthumb -10.1105 7.3914
rfemur -29.4123 -2.56515 13.0162
rtibia 38.2361
rfoot 11.2815 7.04587
rtoes -22.4259
lfemur -29.5771 -0.301527 -14.8443
ltibia 36.9046
lfoot 7.9278 1.48522
ltoes -33.199
74
root 4.75756 20.7442 -5.36554 10.1564 -2.14147 360.103
lowerback 5.54054 1.02072 1.48601
upperback 11.1741 1.31329 0.585265
thorax 8.69111 0.739591 -0.182632
lowerneck -2.44542 -2.33629 2.45668
upperneck -17.6809 -3.44404 -1.8317
head -4.98448 -1.76587 -0.853184
rclavicle 2.84262e-014 4.37326e-015
rhumerus -34.7432 -5.96461 -95.1446
rradius 61.9842
rwrist -6.88202
rhand -23.7 30.6874
rfingers 7.12502
rthumb 2.76706 0.7256
lclavicle 2.84262e-014 4.37326e-015
lhumerus -36.9154 -22.101 95.4645
lradius 56.2237
lwrist 17.2287
lhand -36.8127 -20.8605
lfingers 7.12502
lthumb -9.89395 8.88698
rfemur -29.0565 -2.39547 12.9896
rtibia 39.1084
rfoot 8.94257 7.75302
rtoes -23.0149
lfemur -29.9895 -1.1382 -14.4611
ltibia 38.7477
lfoot 6.61044 1.37111
ltoes -32.9167
75
root 4.75716 20.418 -5.23803 9.99205 -1.95713 360.066
lowerback 5.70569 1.08831 1.45442
upperback 11.4778 1.40017 0.639924
thorax 8.93749 0.779355 -0.103264
lowerneck -2.76977 -2.45408 2.87687
upperneck -17.7185 -3.664 -2.22195
head -4.96197 -1.88214 -1.04038
rclavicle 6.36111e-015 -1.11319e-014
rhumerus -35.4208 -7.40944 -94.6308
rradius 61.9994
rwrist -7.50775
rhand -23.7256 32.1475
rfingers 7.12502
rthumb 2.74233 2.18538
lclavicle 6.36111e-015 -1.11319e-014
lhumerus -36.6276 -20.9902 95.7572
lradius 54.2793
lwrist 18.5261
lhand -36.4785 -19.845
lfingers 7.12502
lthumb -9.57151 9.91762
rfemur -28.8128 -2.21588 12.9474
rtibia 40.3143
rfoot 5.52223 8.7559
rtoes -24.8459
lfemur -30.5357 -1.84718 -14.1628
ltibia 40.9665
lfoot 4.6268 0.895564
ltoes -33.0457
76
root 4.75678 20.0816 -5.11341 9.92718 -1.80893 360.016
lowerback 5.8817 1.17177 1.40451
upperback 11.696 1.50633 0.737422
thorax 9.08009 0.823724 0.0303791
lowerneck -3.00546 -2.52728 2.93103
upperneck -17.7986 -3.77304 -2.23384
head -4.9522 -1.94082 -1.05222
rclavicle 3.97569e-016 3.97569e-016
rhumerus -36.1393 -8.99429 -93.9681
rradius 61.9386
rwrist -8.14943
rhand -23.8237 33.7228
rfingers 7.12502
rthumb 2.64761 3.75952
lclavicle 3.97569e-016 3.97569e-016
lhumerus -36.1552 -19.5959 95.9928
lradius 52.0478
lwrist 19.4891
lhand -35.6613 -18.7248
lfingers 7.12502
lthumb -8.78299 11.0725
rfemur -28.8972 -2.04985 12.93
rtibia 41.9554
rfoot 1.47539 10.0358
rtoes -27.3801
lfemur -31.3126 -2.39513 -13.8986
ltibia 43.5337
lfoot 2.02124 0.219272
ltoes -33.4208
77
root 4.75868 19.732 -4.99276 9.93958 -1.68741 359.976
lowerback 6.07181 1.27564 1.37014
upperback 11.813 1.64197 0.820179
thorax 9.10077 0.884055 0.137758
lowerneck -3.06457 -2.57186 2.83192
upperneck -17.9563 -3.8053 -2.00433
head -4.98663 -1.96339 -0.963461
rclavicle -3.97569e-015 2.78299e-015
rhumerus -36.9861 -10.7713 -93.2245
rradius 61.7774
rwrist -8.72388
rhand -24.1052 35.3209
rfingers 7.12502
rthumb 2.37573 5.35438
lclavicle -3.97569e-015 2.78299e-015
lhumerus -35.5919 -17.9168 96.0765
lradius 49.471
lwrist 19.7414
lhand -34.514 -17.7721
lfingers 7.12502
lthumb -7.67574 12.0686
rfemur -29.2905 -1.88313 12.8956
rtibia 44.1035
rfoot -3.22423 11.3035
rtoes -30.5162
lfemur -32.2657 -2.84447 -13.7045
ltibia 46.3801
lfoot -0.825378 -0.451696
ltoes -33.6955
78
root 4.76223 19.3702 -4.87631 9.82675 -1.56372 359.953
lowerback 6.38615 1.36254 1.289
upperback 11.962 1.75364 0.943083
thorax 9.08229 0.926263 0.31006
lowerneck -3.16051 -2.57429 2.53425
upperneck -18.102 -3.76069 -1.62949
head -5.00278 -1.94345 -0.799962
rclavicle 7.95139e-016 -3.57812e-015
rhumerus -37.6794 -12.5787 -92.3747
rradius 61.4718
rwrist -9.31332
rhand -24.4238 36.5872
rfingers 7.12502
rthumb 2.06805 6.61752
lclavicle 7.95139e-016 -3.57812e-015
lhumerus -34.7674 -15.9442 96.0181
lradius 46.4838
lwrist 19.1868
lhand -33.4424 -17.2215
lfingers 7.12502
lthumb -6.64129 12.6544
rfemur -29.7065 -1.73098 12.8232
rtibia 46.7265
rfoot -8.33319 12.2138
rtoes -33.5451
lfemur -33.1262 -3.19382 -13.5972
ltibia 49.4328
lfoot -4.05931 -1.06781
ltoes -34.7409
79
root 4.76508 19.0118 -4.76353 9.63756 -1.3821 359.92
lowerback 6.73992 1.45181 1.23084
upperback 12.1712 1.86748 1.08202
thorax 9.10991 0.970876 0.486448
lowerneck -3.3768 -2.57438 2.21409
upperneck -18.2596 -3.70883 -1.21893
head -5.00173 -1.92092 -0.623589
rclavicle -6.75868e-015 -9.14409e-015
rhumerus -37.8872 -14.4437 -91.4999
rradius 60.7515
rwrist -9.9351
rhand -24.9732 37.7698
rfingers 7.12502
rthumb 1.53748 7.7956
lclavicle -6.75868e-015 -9.14409e-015
lhumerus -33.646 -13.7816 95.7863
lradius 43.2596
lwrist 18.1458
lhand -32.4138 -16.8238
lfingers 7.12502
lthumb -5.64825 13.081
rfemur -30.2167 -1.59924 12.7725
rtibia 49.7022
rfoot -13.3764 12.5548
rtoes -35.5424
lfemur -33.9408 -3.4917 -13.5333
ltibia 52.5929
lfoot -7.48129 -1.24223
ltoes -36.0891
80
root 4.76869 18.6726 -4.65262 9.4116 -1.17346 359.939
lowerback 7.08225 1.54071 1.15786
upperback 12.3997 1.98247 1.18767
thorax 9.16703 1.01657 0.636166
lowerneck -3.40217 -2.54998 1.91306
upperneck -18.6715 -3.60337 -0.701156
head -5.10925 -1.87809 -0.414087
rclavicle 1.98785e-014 3.97569e-016
rhumerus -37.6379 -16.53 -90.6027
rradius 59.3815
rwrist -10.3868
rhand -25.3274 38.0783
rfingers 7.12502
rthumb 1.19535 8.10194
lclavicle 1.98785e-014 3.97569e-016
lhumerus -32.1764 -11.519 95.4041
lradius 39.7459
lwrist 17.1771
lhand -32.2002 -17.3966
lfingers 7.12502
lthumb -5.44199 12.5136
rfemur -30.8412 -1.42205 12.6655
rtibia 52.8573
rfoot -17.9848 12.6115
rtoes -36.2127
lfemur -34.7274 -3.73408 -13.594
ltibia 55.762
lfoot -10.761 -0.942096
ltoes -36.0049
81
root 4.7747 18.3581 -4.5352 9.16069 -1.02933 359.938
lowerback 7.32554 1.65085 1.10503
upperback 12.626 2.12358 1.29831
thorax 9.27963 1.07614 0.78313
lowerneck -3.16061 -2.51756 1.69905
upperneck -19.2277 -3.49692 -0.297657
head -5.31046 -1.83375 -0.248985
rclavicle -1.70955e-014 6.75868e-015
rhumerus -37.0721 -18.8146 -89.6126
rradius 57.3908
rwrist -10.4205
rhand -25.6888 37.9056
rfingers 7.12502
rthumb 0.84629 7.92752
lclavicle -1.70955e-014 6.75868e-015
lhumerus -30.4794 -9.11429 94.9871
lradius 36.0669
lwrist 16.732
lhand -32.4698 -18.1234
lfingers 7.12502
lthumb -5.70233 11.7799
rfemur -31.5356 -1.12864 12.5743
rtibia 56.0167
rfoot -21.9245 12.6934
rtoes -36.4608
lfemur -35.3804 -3.89259 -13.6991
ltibia 58.845
lfoot -13.9316 -0.32672
ltoes -36.1675
82
root 4.78398 18.0665 -4.41411 8.92463 -0.947653 359.99
lowerback 7.54718 1.76946 1.0268
upperback 12.7904 2.27739 1.38212
thorax 9.3336 1.14096 0.914228
lowerneck -2.99751 -2.50797 1.7542
upperneck -19.529 -3.47578 -0.275169
head -5.43246 -1.82775 -0.247302
rclavicle -1.15295e-014 7.15625e-015
rhumerus -36.3948 -21.1041 -88.5422
rradius 55.2237
rwrist -10.0675
rhand -26.127 37.1927
rfingers 7.12502
rthumb 0.423133 7.2134
lclavicle -1.15295e-014 7.15625e-015
lhumerus -28.8718 -6.08406 94.4432
lradius 32.5641
lwrist 16.3091
lhand -33.1196 -18.4152
lfingers 7.12502
lthumb -6.32965 11.4702
rfemur -32.2241 -0.77119 12.4085
rtibia 59.0389
rfoot -25.1168 12.8365
rtoes -36.3118
lfemur -35.9297 -4.00525 -13.9197
ltibia 61.79
lfoot -17.2566 0.49994
ltoes -36.9727
83
root 4.79576 17.797 -4.29099 8.74054 -0.8358 360.041
lowerback 7.74526 1.83719 0.960949
upperback 12.93 2.36146 1.49364
thorax 9.37205 1.17053 1.06724
lowerneck -3.21315 -2.47092 1.72123
upperneck -19.5405 -3.43508 -0.326746
head -5.40001 -1.8022 -0.262761
rclavicle -4.37326e-015 1.90833e-014
rhumerus -35.6303 -23.1305 -87.4494
rradius 53.2529
rwrist -9.40968
rhand -26.9262 36.2017
rfingers 7.12502
rthumb -0.348804 6.22225
lclavicle -4.37326e-015 1.90833e-014
lhumerus -27.4646 -2.23582 93.7602
lradius 29.617
lwrist 15.7435
lhand -33.8827 -17.9346
lfingers 7.12502
lthumb -7.06638 11.9274
rfemur -32.8735 -0.417787 12.2499
rtibia 61.8263
rfoot -27.5175 13.0612
rtoes -35.4804
lfemur -36.4407 -4.09331 -14.1704
ltibia 64.5361
lfoot -20.212 1.35447
ltoes -36.6297
